<?xml version="1.0" encoding="UTF-8" standalone="no"?>
<!-- Created with Inkscape (http://www.inkscape.org/) -->

<svg
   width="10cm"
   height="10cm"
   viewBox="0 0 99.999999 99.999996"
   version="1.1"
   id="svg5"
   inkscape:version="1.1.2 (b8e25be833, 2022-02-05)"
   sodipodi:docname="logo prototype 2022 aug combined white.svg"
   xmlns:inkscape="http://www.inkscape.org/namespaces/inkscape"
   xmlns:sodipodi="http://sodipodi.sourceforge.net/DTD/sodipodi-0.dtd"
   xmlns="http://www.w3.org/2000/svg"
   xmlns:svg="http://www.w3.org/2000/svg">
  <sodipodi:namedview
     id="namedview7"
     pagecolor="#ffffff"
     bordercolor="#666666"
     borderopacity="1.0"
     inkscape:pageshadow="2"
     inkscape:pageopacity="0.0"
     inkscape:pagecheckerboard="0"
     inkscape:document-units="mm"
     showgrid="false"
     units="cm"
     showguides="true"
     inkscape:guide-bbox="true"
     inkscape:zoom="1.0998546"
     inkscape:cx="-80.465181"
     inkscape:cy="285.03768"
     inkscape:window-width="2102"
     inkscape:window-height="1095"
     inkscape:window-x="1070"
     inkscape:window-y="444"
     inkscape:window-maximized="0"
     inkscape:current-layer="layer1">
    <sodipodi:guide
       position="50.004992,111.0248"
       orientation="1,0"
       id="guide9" />
    <sodipodi:guide
       position="9.9935564,48.054766"
       orientation="1,0"
       id="guide11" />
    <sodipodi:guide
       position="89.942009,44.03608"
       orientation="1,0"
       id="guide42" />
    <sodipodi:guide
       position="5.9110823,89.985177"
       orientation="0,-1"
       id="guide44" />
    <sodipodi:guide
       position="2.8266046,9.9696333"
       orientation="0,-1"
       id="guide46" />
  </sodipodi:namedview>
  <defs
     id="defs2" />
  <g
     inkscape:label="Layer 1"
     inkscape:groupmode="layer"
     id="layer1">
    <path
       id="path81"
       style="color:#000000;fill:#ffffff;stroke-width:3.77953;-inkscape-stroke:none"
       d="M 189.02148 3.8632812 A 34.015748 34.015748 0 0 0 155.00586 37.878906 A 34.015748 34.015748 0 0 0 165.92969 62.853516 L 44.242188 306.20508 A 34.015748 34.015748 0 0 0 37.732422 305.57422 A 34.015748 34.015748 0 0 0 3.7167969 339.58984 A 34.015748 34.015748 0 0 0 37.732422 373.60547 A 34.015748 34.015748 0 0 0 71.748047 339.58984 A 34.015748 34.015748 0 0 0 61.056641 314.83398 L 182.82812 71.300781 A 34.015748 34.015748 0 0 0 189.02148 71.894531 A 34.015748 34.015748 0 0 0 195.13672 71.316406 L 244.33008 169.87695 A 34.015748 34.015748 0 0 0 231.01953 196.84375 A 34.015748 34.015748 0 0 0 240.2793 220.16016 L 195.85352 306.3457 A 34.015748 34.015748 0 0 0 188.66211 305.57422 A 34.015748 34.015748 0 0 0 154.64648 339.58984 A 34.015748 34.015748 0 0 0 188.66211 373.60547 A 34.015748 34.015748 0 0 0 222.67773 339.58984 A 34.015748 34.015748 0 0 0 212.48828 315.31641 L 256.58203 229.77148 A 34.015748 34.015748 0 0 0 265.03516 230.85938 A 34.015748 34.015748 0 0 0 274.13867 229.59766 L 316.69727 314.86523 A 34.015748 34.015748 0 0 0 306.0293 339.58984 A 34.015748 34.015748 0 0 0 340.04492 373.60547 A 34.015748 34.015748 0 0 0 374.06055 339.58984 A 34.015748 34.015748 0 0 0 340.04492 305.57422 A 34.015748 34.015748 0 0 0 333.51172 306.23242 L 290.28125 219.61914 A 34.015748 34.015748 0 0 0 299.05078 196.84375 A 34.015748 34.015748 0 0 0 265.03516 162.82812 A 34.015748 34.015748 0 0 0 262.01172 162.97852 L 212.06055 62.898438 A 34.015748 34.015748 0 0 0 223.03711 37.878906 A 34.015748 34.015748 0 0 0 189.02148 3.8632812 z M 189.02148 22.759766 A 15.11811 15.11811 0 0 1 204.14062 37.878906 A 15.11811 15.11811 0 0 1 189.02148 52.996094 A 15.11811 15.11811 0 0 1 173.9043 37.878906 A 15.11811 15.11811 0 0 1 189.02148 22.759766 z M 265.03516 181.72656 A 15.11811 15.11811 0 0 1 280.15234 196.84375 A 15.11811 15.11811 0 0 1 265.03516 211.96289 A 15.11811 15.11811 0 0 1 249.91602 196.84375 A 15.11811 15.11811 0 0 1 265.03516 181.72656 z M 37.732422 324.47266 A 15.11811 15.11811 0 0 1 52.849609 339.58984 A 15.11811 15.11811 0 0 1 37.732422 354.70898 A 15.11811 15.11811 0 0 1 22.613281 339.58984 A 15.11811 15.11811 0 0 1 37.732422 324.47266 z M 188.66211 324.47266 A 15.11811 15.11811 0 0 1 203.7793 339.58984 A 15.11811 15.11811 0 0 1 188.66211 354.70898 A 15.11811 15.11811 0 0 1 173.54297 339.58984 A 15.11811 15.11811 0 0 1 188.66211 324.47266 z M 340.04492 324.47266 A 15.11811 15.11811 0 0 1 355.16211 339.58984 A 15.11811 15.11811 0 0 1 340.04492 354.70898 A 15.11811 15.11811 0 0 1 324.92773 339.58984 A 15.11811 15.11811 0 0 1 340.04492 324.47266 z "
       transform="scale(0.26458333)" />
  </g>
</svg>
