<?xml version="1.0" encoding="UTF-8" standalone="no"?>
<!-- Created with Inkscape (http://www.inkscape.org/) -->

<svg
   width="10cm"
   height="10cm"
   viewBox="0 0 99.999999 99.999996"
   version="1.1"
   id="svg5"
   inkscape:version="1.1.2 (b8e25be833, 2022-02-05)"
   sodipodi:docname="adalanche-logo-black.svg"
   inkscape:export-filename="C:\Users\LAK\Desktop\adalanche-favicon.png"
   inkscape:export-xdpi="8.1300001"
   inkscape:export-ydpi="8.1300001"
   xmlns:inkscape="http://www.inkscape.org/namespaces/inkscape"
   xmlns:sodipodi="http://sodipodi.sourceforge.net/DTD/sodipodi-0.dtd"
   xmlns="http://www.w3.org/2000/svg"
   xmlns:svg="http://www.w3.org/2000/svg">
  <sodipodi:namedview
     id="namedview7"
     pagecolor="#ffffff"
     bordercolor="#666666"
     borderopacity="1.0"
     inkscape:pageshadow="2"
     inkscape:pageopacity="0"
     inkscape:pagecheckerboard="0"
     inkscape:document-units="mm"
     showgrid="false"
     units="cm"
     showguides="true"
     inkscape:guide-bbox="true"
     inkscape:zoom="1.0998546"
     inkscape:cx="-80.465181"
     inkscape:cy="285.03768"
     inkscape:window-width="2102"
     inkscape:window-height="1095"
     inkscape:window-x="1070"
     inkscape:window-y="444"
     inkscape:window-maximized="0"
     inkscape:current-layer="layer1">
    <sodipodi:guide
       position="50.004992,111.0248"
       orientation="1,0"
       id="guide9" />
    <sodipodi:guide
       position="9.9935564,48.054766"
       orientation="1,0"
       id="guide11" />
    <sodipodi:guide
       position="89.942009,44.03608"
       orientation="1,0"
       id="guide42" />
    <sodipodi:guide
       position="5.9110823,89.985177"
       orientation="0,-1"
       id="guide44" />
    <sodipodi:guide
       position="2.8266046,9.9696333"
       orientation="0,-1"
       id="guide46" />
  </sodipodi:namedview>
  <defs
     id="defs2" />
  <g
     inkscape:label="Layer 1"
     inkscape:groupmode="layer"
     id="layer1">
    <path
       id="path81"
       style="color:#000000;fill:#000000;stroke-width:0.909074;-inkscape-stroke:none"
       d="m 50.008738,5.4697309 a 8.1816596,8.1816596 0 0 0 -8.181629,8.1816301 8.1816596,8.1816596 0 0 0 2.627461,6.007034 L 15.185605,78.190686 A 8.1816596,8.1816596 0 0 0 13.61984,78.038948 8.1816596,8.1816596 0 0 0 5.4382097,86.220577 8.1816596,8.1816596 0 0 0 13.61984,94.402208 8.1816596,8.1816596 0 0 0 21.80147,86.220577 8.1816596,8.1816596 0 0 0 19.229913,80.266158 L 48.519076,21.690179 a 8.1816596,8.1816596 0 0 0 1.489662,0.142812 8.1816596,8.1816596 0 0 0 1.470872,-0.139054 l 11.832264,23.706338 a 8.1816596,8.1816596 0 0 0 -3.201528,6.486207 8.1816596,8.1816596 0 0 0 2.227212,5.608195 l -10.68554,20.729832 a 8.1816596,8.1816596 0 0 0 -1.729718,-0.185561 8.1816596,8.1816596 0 0 0 -8.181631,8.181629 8.1816596,8.1816596 0 0 0 8.181631,8.181631 8.1816596,8.1816596 0 0 0 8.181629,-8.181631 8.1816596,8.1816596 0 0 0 -2.450824,-5.838382 l 10.605677,-20.57575 a 8.1816596,8.1816596 0 0 0 2.033195,0.261668 8.1816596,8.1816596 0 0 0 2.189627,-0.303476 l 10.236435,20.509037 a 8.1816596,8.1816596 0 0 0 -2.56592,5.946903 8.1816596,8.1816596 0 0 0 8.181628,8.181631 8.1816596,8.1816596 0 0 0 8.181632,-8.181631 8.1816596,8.1816596 0 0 0 -8.181632,-8.181629 8.1816596,8.1816596 0 0 0 -1.571402,0.158314 L 74.364309,57.364547 a 8.1816596,8.1816596 0 0 0 2.109297,-5.478065 8.1816596,8.1816596 0 0 0 -8.181629,-8.181631 8.1816596,8.1816596 0 0 0 -0.727215,0.03618 L 55.550225,19.6692 a 8.1816596,8.1816596 0 0 0 2.640144,-6.017839 8.1816596,8.1816596 0 0 0 -8.181631,-8.1816301 z m 0,4.5450891 a 3.6362931,3.6362931 0 0 1 3.63654,3.636541 3.6362931,3.6362931 0 0 1 -3.63654,3.636071 3.6362931,3.6362931 0 0 1 -3.63607,-3.636071 3.6362931,3.6362931 0 0 1 3.63607,-3.636541 z m 18.283239,38.23559 a 3.6362931,3.6362931 0 0 1 3.636069,3.636072 3.6362931,3.6362931 0 0 1 -3.636069,3.636541 3.6362931,3.6362931 0 0 1 -3.636541,-3.636541 3.6362931,3.6362931 0 0 1 3.636541,-3.636072 z M 13.61984,82.584508 a 3.6362931,3.6362931 0 0 1 3.636071,3.636069 3.6362931,3.6362931 0 0 1 -3.636071,3.636541 3.6362931,3.6362931 0 0 1 -3.6365413,-3.636541 3.6362931,3.6362931 0 0 1 3.6365413,-3.636069 z m 36.30246,0 a 3.6362931,3.6362931 0 0 1 3.636072,3.636069 3.6362931,3.6362931 0 0 1 -3.636072,3.636541 3.6362931,3.6362931 0 0 1 -3.636541,-3.636541 3.6362931,3.6362931 0 0 1 3.636541,-3.636069 z m 36.411447,0 a 3.6362931,3.6362931 0 0 1 3.636072,3.636069 3.6362931,3.6362931 0 0 1 -3.636072,3.636541 3.6362931,3.6362931 0 0 1 -3.636071,-3.636541 3.6362931,3.6362931 0 0 1 3.636071,-3.636069 z" />
  </g>
</svg>
