<?xml version="1.0" encoding="UTF-8" standalone="no"?>
<!-- Created with Inkscape (http://www.inkscape.org/) -->

<svg
   width="100mm"
   height="100mm"
   viewBox="0 0 100 100"
   version="1.1"
   id="svg148"
   inkscape:version="1.1.2 (b8e25be833, 2022-02-05)"
   sodipodi:docname="adalanche-logo.svg"
   xmlns:inkscape="http://www.inkscape.org/namespaces/inkscape"
   xmlns:sodipodi="http://sodipodi.sourceforge.net/DTD/sodipodi-0.dtd"
   xmlns="http://www.w3.org/2000/svg"
   xmlns:svg="http://www.w3.org/2000/svg">
  <sodipodi:namedview
     id="namedview150"
     pagecolor="#ffffff"
     bordercolor="#666666"
     borderopacity="1.0"
     inkscape:pageshadow="2"
     inkscape:pageopacity="0.0"
     inkscape:pagecheckerboard="true"
     inkscape:document-units="mm"
     showgrid="false"
     inkscape:zoom="0.80087682"
     inkscape:cx="396.44049"
     inkscape:cy="561.25984"
     inkscape:window-width="1482"
     inkscape:window-height="1095"
     inkscape:window-x="724"
     inkscape:window-y="414"
     inkscape:window-maximized="0"
     inkscape:current-layer="layer1" />
  <defs
     id="defs145" />
  <g
     inkscape:label="Layer 1"
     inkscape:groupmode="layer"
     id="layer1">
    <path
       id="path1363-2"
       style="color:#000000;fill:#ffffff;stroke:none;stroke-width:0.936546;-inkscape-stroke:none"
       d="m 49.971452,0 c -6.891987,0 -12.561056,5.667132 -12.561056,12.559104 0,3.527332 1.485814,6.73354 3.8597,9.023686 L 14.533451,75.051194 c -0.666463,-0.111013 -1.349759,-0.169392 -2.045753,-0.169392 -6.891961,0 -12.559104,5.667144 -12.559104,12.559116 0,6.891961 5.667143,12.559082 12.559104,12.559082 6.891983,0 12.561063,-5.667121 12.561063,-12.559082 0,-0.832136 -0.08351,-1.646272 -0.241027,-2.434871 L 61.169618,61.107925 c 2.221977,1.975999 5.140112,3.182608 8.319507,3.182608 0.680503,0 1.348891,-0.05589 2.001227,-0.162129 l 7.211204,14.396265 c -2.30939,2.282478 -3.748852,5.443555 -3.748852,8.916249 0,6.891961 5.667133,12.559082 12.559105,12.559082 6.891972,0 12.559601,-5.667121 12.559601,-12.559082 0,-6.891972 -5.667629,-12.559116 -12.559601,-12.559116 -0.736108,0 -1.457704,0.06491 -2.160463,0.188756 L 78.183227,60.761397 c 2.377395,-2.290575 3.865014,-5.499259 3.865014,-9.029979 0,-6.891972 -5.667143,-12.559104 -12.559116,-12.559104 -0.669532,0 -1.327425,0.05391 -1.969771,0.156804 L 58.665543,21.589557 c 2.377428,-2.290576 3.865014,-5.499711 3.865014,-9.030453 C 62.530557,5.667132 56.863424,0 49.971452,0 Z m 0,7.492389 c 2.842792,0 5.0672,2.223913 5.0672,5.066715 0,2.842803 -2.224408,5.0672 -5.0672,5.0672 -2.842802,0 -5.068652,-2.224397 -5.068652,-5.0672 0,-2.842802 2.22585,-5.066715 5.068652,-5.066715 z m -2.010909,17.462238 c 0.655428,0.107272 1.327051,0.164066 2.010909,0.164066 0.680161,0 1.34822,-0.05644 2.000259,-0.162614 l 8.846065,17.723102 c -2.390773,2.292017 -3.887755,5.510163 -3.887755,9.052237 0,1.018976 0.124722,2.010843 0.358135,2.961924 L 21.245195,78.380935 Z m 21.528582,21.710075 c 2.842803,0 5.066716,2.223914 5.066716,5.066716 0,2.842803 -2.223913,5.066727 -5.066716,5.066727 -2.842802,0 -5.066715,-2.223924 -5.066715,-5.066727 0,-2.842802 2.223913,-5.066716 5.066715,-5.066716 z M 12.487698,82.374191 c 2.842803,0 5.068652,2.223924 5.068652,5.066727 0,2.842791 -2.225849,5.066715 -5.068652,5.066715 -2.842791,0 -5.066715,-2.223924 -5.066715,-5.066715 0,-2.842803 2.223924,-5.066727 5.066715,-5.066727 z m 75.024111,0 c 2.842802,0 5.067199,2.223924 5.067199,5.066727 0,2.842791 -2.224397,5.066715 -5.067199,5.066715 -2.842792,0 -5.066716,-2.223924 -5.066716,-5.066715 0,-2.842803 2.223924,-5.066727 5.066716,-5.066727 z" />
  </g>
</svg>
