<?xml version="1.0" encoding="UTF-8" standalone="no"?>
<svg
   version="1.1"
   x="0px"
   y="0px"
   viewBox="0 0 100 100"
   enable-background="new 0 0 100 100"
   xml:space="preserve"
   id="svg50"
   sodipodi:docname="certificate.svg"
   width="100"
   height="100"
   inkscape:version="1.2.2 (732a01da63, 2022-12-09)"
   xmlns:inkscape="http://www.inkscape.org/namespaces/inkscape"
   xmlns:sodipodi="http://sodipodi.sourceforge.net/DTD/sodipodi-0.dtd"
   xmlns="http://www.w3.org/2000/svg"
   xmlns:svg="http://www.w3.org/2000/svg"
   xmlns:rdf="http://www.w3.org/1999/02/22-rdf-syntax-ns#"
   xmlns:cc="http://creativecommons.org/ns#"
   xmlns:dc="http://purl.org/dc/elements/1.1/"><metadata
     id="metadata56"><rdf:RDF><cc:Work
         rdf:about=""><dc:format>image/svg+xml</dc:format><dc:type
           rdf:resource="http://purl.org/dc/dcmitype/StillImage" /></cc:Work></rdf:RDF></metadata><defs
     id="defs54" /><sodipodi:namedview
     pagecolor="#ffffff"
     bordercolor="#666666"
     borderopacity="1"
     objecttolerance="10"
     gridtolerance="10"
     guidetolerance="10"
     inkscape:pageopacity="0"
     inkscape:pageshadow="2"
     inkscape:window-width="1661"
     inkscape:window-height="1095"
     id="namedview52"
     showgrid="false"
     inkscape:zoom="2.322"
     inkscape:cx="71.490095"
     inkscape:cy="57.278208"
     inkscape:window-x="228"
     inkscape:window-y="96"
     inkscape:window-maximized="0"
     inkscape:current-layer="svg50"
     inkscape:pagecheckerboard="0"
     inkscape:showpageshadow="2"
     inkscape:deskcolor="#d1d1d1" /><g
     id="g825"
     transform="translate(13.00023,-3.7486404)"><g
       id="g102"
       transform="matrix(0.1588609,0,0,0.1588609,-3.6686203,13.08025)">
	<g
   id="g100">
		<path
   d="m 249.429,214.144 c -3.968,-1.685 -8.576,-0.747 -11.627,2.304 l -21.333,21.333 c -4.16,4.16 -4.16,10.923 0,15.083 4.16,4.16 10.923,4.16 15.083,0 l 3.115,-3.115 V 288 c 0,5.888 4.779,10.667 10.667,10.667 5.888,0 10.666,-4.779 10.687,-10.667 v -64 c 0,-4.309 -2.602,-8.213 -6.592,-9.856 z"
   id="path98" />
	</g>
</g><g
       id="g108"
       transform="matrix(0.1588609,0,0,0.1588609,-3.6686203,13.08025)">
	<g
   id="g106">
		<path
   d="m 313.429,214.144 c -3.947,-1.685 -8.576,-0.747 -11.627,2.304 l -21.333,21.333 c -4.16,4.16 -4.16,10.923 0,15.083 4.16,4.16 10.923,4.16 15.083,0 l 3.115,-3.115 V 288 c 0,5.888 4.779,10.667 10.667,10.667 5.888,0 10.666,-4.779 10.687,-10.667 v -64 c 0,-4.309 -2.602,-8.213 -6.592,-9.856 z"
   id="path104" />
	</g>
</g><g
       id="g114"
       transform="matrix(0.1588609,0,0,0.1588609,-3.6686203,13.08025)">
	<g
   id="g112">
		<path
   d="m 377.429,214.144 c -3.968,-1.685 -8.555,-0.747 -11.627,2.304 l -21.333,21.333 c -4.16,4.16 -4.16,10.923 0,15.083 4.16,4.16 10.923,4.16 15.083,0 l 3.115,-3.115 V 288 c 0,5.888 4.779,10.667 10.667,10.667 5.888,0 10.667,-4.779 10.688,-10.667 v -64 c -10e-4,-4.309 -2.603,-8.213 -6.593,-9.856 z"
   id="path110" />
	</g>
</g><g
       id="g120"
       transform="matrix(0.1588609,0,0,0.1588609,-3.6686203,13.08025)">
	<g
   id="g118">
		<path
   d="m 181.333,213.333 h -42.667 c -5.888,0 -10.667,4.779 -10.667,10.667 v 64 c 0,5.888 4.779,10.667 10.667,10.667 h 42.667 C 187.221,298.667 192,293.888 192,288 v -64 c 0,-5.888 -4.779,-10.667 -10.667,-10.667 z m -10.666,64 h -21.333 v -42.667 h 21.333 z"
   id="path116" />
	</g>
</g><g
       id="g126"
       transform="matrix(0.1588609,0,0,0.1588609,-3.6686203,13.08025)">
	<g
   id="g124">
		<path
   d="m 313.429,342.144 c -3.947,-1.664 -8.576,-0.747 -11.627,2.304 l -21.333,21.333 c -4.16,4.16 -4.16,10.923 0,15.083 4.16,4.16 10.923,4.16 15.083,0 l 3.115,-3.115 V 416 c 0,5.888 4.779,10.667 10.667,10.667 5.888,0 10.666,-4.779 10.687,-10.667 v -64 c 0,-4.309 -2.602,-8.213 -6.592,-9.856 z"
   id="path122" />
	</g>
</g><g
       id="g132"
       transform="matrix(0.1588609,0,0,0.1588609,-3.6686203,13.08025)">
	<g
   id="g130">
		<path
   d="m 377.429,342.144 c -3.968,-1.664 -8.555,-0.747 -11.627,2.304 l -21.333,21.333 c -4.16,4.16 -4.16,10.923 0,15.083 4.16,4.16 10.923,4.16 15.083,0 l 3.115,-3.115 V 416 c 0,5.888 4.779,10.667 10.667,10.667 5.888,0 10.667,-4.779 10.688,-10.667 v -64 c -10e-4,-4.309 -2.603,-8.213 -6.593,-9.856 z"
   id="path128" />
	</g>
</g><g
       id="g138"
       transform="matrix(0.1588609,0,0,0.1588609,-3.6686203,13.08025)">
	<g
   id="g136">
		<path
   d="m 164.096,342.144 c -3.968,-1.664 -8.576,-0.747 -11.627,2.304 l -21.333,21.333 c -4.16,4.16 -4.16,10.923 0,15.083 4.16,4.16 10.923,4.16 15.083,0 l 3.115,-3.115 V 416 c 0,5.888 4.779,10.667 10.667,10.667 5.888,0 10.667,-4.779 10.688,-10.667 v -64 c -0.001,-4.309 -2.604,-8.213 -6.593,-9.856 z"
   id="path134" />
	</g>
</g><g
       id="g144"
       transform="matrix(0.1588609,0,0,0.1588609,-3.6686203,13.08025)">
	<g
   id="g142">
		<path
   d="m 245.333,341.333 h -42.667 c -5.888,0 -10.667,4.779 -10.667,10.667 v 64 c 0,5.888 4.779,10.667 10.667,10.667 h 42.667 C 251.221,426.667 256,421.888 256,416 v -64 c 0,-5.888 -4.779,-10.667 -10.667,-10.667 z m -10.666,64 h -21.333 v -42.667 h 21.333 z"
   id="path140" />
	</g>
</g><g
       id="g150"
       transform="matrix(0.1588609,0,0,0.1588609,-3.6686203,13.08025)">
	<g
   id="g148">
		<path
   d="M 437.333,0 H 202.667 c -1.429,0 -2.837,0.299 -4.139,0.832 -0.405,0.171 -0.704,0.491 -1.067,0.725 -0.811,0.469 -1.664,0.896 -2.347,1.557 l -128,128 c -0.491,0.491 -0.768,1.152 -1.152,1.728 -0.384,0.576 -0.875,1.067 -1.131,1.707 -0.533,1.301 -0.832,2.688 -0.832,4.117 V 501.333 C 64,507.221 68.779,512 74.667,512 h 362.667 c 5.888,0 10.667,-4.779 10.667,-10.667 V 10.667 C 448,4.779 443.221,0 437.333,0 Z M 192,36.416 V 128 H 100.416 Z M 426.667,490.667 H 85.333 V 149.333 h 117.333 c 5.888,0 10.667,-4.779 10.667,-10.667 V 21.333 h 213.333 v 469.334 z"
   id="path146" />
	</g>
</g><g
       id="g152"
       transform="matrix(0.1588609,0,0,0.1588609,-3.6686203,13.08025)">
</g><g
       id="g154"
       transform="matrix(0.1588609,0,0,0.1588609,-3.6686203,13.08025)">
</g><g
       id="g156"
       transform="matrix(0.1588609,0,0,0.1588609,-3.6686203,13.08025)">
</g><g
       id="g158"
       transform="matrix(0.1588609,0,0,0.1588609,-3.6686203,13.08025)">
</g><g
       id="g160"
       transform="matrix(0.1588609,0,0,0.1588609,-3.6686203,13.08025)">
</g><g
       id="g162"
       transform="matrix(0.1588609,0,0,0.1588609,-3.6686203,13.08025)">
</g><g
       id="g164"
       transform="matrix(0.1588609,0,0,0.1588609,-3.6686203,13.08025)">
</g><g
       id="g166"
       transform="matrix(0.1588609,0,0,0.1588609,-3.6686203,13.08025)">
</g><g
       id="g168"
       transform="matrix(0.1588609,0,0,0.1588609,-3.6686203,13.08025)">
</g><g
       id="g170"
       transform="matrix(0.1588609,0,0,0.1588609,-3.6686203,13.08025)">
</g><g
       id="g172"
       transform="matrix(0.1588609,0,0,0.1588609,-3.6686203,13.08025)">
</g><g
       id="g174"
       transform="matrix(0.1588609,0,0,0.1588609,-3.6686203,13.08025)">
</g><g
       id="g176"
       transform="matrix(0.1588609,0,0,0.1588609,-3.6686203,13.08025)">
</g><g
       id="g178"
       transform="matrix(0.1588609,0,0,0.1588609,-3.6686203,13.08025)">
</g><g
       id="g180"
       transform="matrix(0.1588609,0,0,0.1588609,-3.6686203,13.08025)">
</g></g></svg>
