<?xml version="1.0" encoding="UTF-8" standalone="no"?>
<svg
   xmlns:dc="http://purl.org/dc/elements/1.1/"
   xmlns:cc="http://creativecommons.org/ns#"
   xmlns:rdf="http://www.w3.org/1999/02/22-rdf-syntax-ns#"
   xmlns:svg="http://www.w3.org/2000/svg"
   xmlns="http://www.w3.org/2000/svg"
   xmlns:sodipodi="http://sodipodi.sourceforge.net/DTD/sodipodi-0.dtd"
   xmlns:inkscape="http://www.inkscape.org/namespaces/inkscape"
   width="100mm"
   height="100mm"
   viewBox="0 0 100 100"
   version="1.1"
   id="svg41"
   inkscape:version="1.0.2-2 (e86c870879, 2021-01-15)"
   sodipodi:docname="dns.svg">
  <defs
     id="defs35" />
  <sodipodi:namedview
     id="base"
     pagecolor="#ffffff"
     bordercolor="#666666"
     borderopacity="1.0"
     inkscape:pageopacity="0.0"
     inkscape:pageshadow="2"
     inkscape:zoom="0.35"
     inkscape:cx="400"
     inkscape:cy="560"
     inkscape:document-units="mm"
     inkscape:current-layer="layer1"
     inkscape:document-rotation="0"
     showgrid="false"
     inkscape:window-width="1566"
     inkscape:window-height="1208"
     inkscape:window-x="357"
     inkscape:window-y="59"
     inkscape:window-maximized="0" />
  <metadata
     id="metadata38">
    <rdf:RDF>
      <cc:Work
         rdf:about="">
        <dc:format>image/svg+xml</dc:format>
        <dc:type
           rdf:resource="http://purl.org/dc/dcmitype/StillImage" />
        <dc:title></dc:title>
      </cc:Work>
    </rdf:RDF>
  </metadata>
  <g
     inkscape:label="Layer 1"
     inkscape:groupmode="layer"
     id="layer1">
    <path
       d="M 9.556547,31.693149 C 17.232549,18.536645 32.452494,9.5565471 50.000001,9.5565471 c 17.539247,0 32.767446,8.9800979 40.443448,22.1366019 h -7.0157 c -1.551709,-2.17074 -3.342776,-4.209422 -5.397962,-6.058263 -3.210718,-2.930089 -6.87539,-5.274159 -10.944494,-7.040464 2.963102,3.557372 5.422723,8.014407 7.180777,13.098727 H 67.852892 C 66.821172,29.101468 65.591363,26.707874 64.179967,24.553642 62.133035,21.458478 59.706428,18.957589 57.172522,17.339849 55.827158,16.473205 54.44878,15.854171 53.045639,15.491007 V 31.693149 H 46.946105 V 15.499258 c -1.394886,0.363167 -2.765011,0.982201 -4.12688,1.840591 -2.533907,1.61774 -4.95226,4.118629 -7.007449,7.213793 -1.411392,2.162487 -2.641203,4.547826 -3.656418,7.139507 h -6.437937 c 1.774559,-5.08432 4.225929,-9.5331 7.180776,-13.098727 -4.052598,1.766305 -7.733779,4.110375 -10.936239,7.040464 -2.055189,1.848841 -3.846254,3.887523 -5.397962,6.058263 z M 83.427749,68.2986 c -1.551709,2.17074 -3.342776,4.209421 -5.397962,6.058265 -3.210718,2.930088 -6.87539,5.274155 -10.944494,7.040463 2.963102,-3.557376 5.414469,-8.014409 7.180777,-13.098728 h -6.429687 c -1.023465,2.591684 -2.253275,4.977022 -3.672921,7.139508 -2.046935,3.103415 -4.473542,5.596053 -7.007449,7.222044 -1.345363,0.858393 -2.731996,1.477424 -4.118629,1.840591 V 68.282092 h -6.091279 v 16.210396 c -1.394886,-0.363166 -2.765011,-0.982197 -4.12688,-1.84059 -2.533907,-1.625991 -4.95226,-4.118629 -7.007449,-7.222044 -1.411392,-2.154232 -2.641203,-4.53957 -3.664672,-7.139508 h -6.421429 c 1.766305,5.084322 4.217675,9.524847 7.180776,13.098728 -4.052598,-1.766308 -7.725524,-4.110376 -10.927984,-7.040463 -2.055189,-1.84059 -3.846257,-3.887525 -5.397963,-6.058265 H 9.556547 c 7.676002,13.17301 22.895947,22.153108 40.443454,22.153108 17.539247,0 32.767446,-8.980098 40.443448,-22.144854 z M 16.918908,40.565947 H 27.77261 c 6.413175,0 9.351516,3.747209 9.351516,9.301994 0,5.331934 -2.608192,9.830236 -9.169934,9.830236 H 16.918908 Z m 10.886716,16.664355 c 5.216381,0 6.140802,-3.92054 6.140802,-7.321093 0,-3.351028 -1.221556,-6.883641 -6.743327,-6.883641 h -7.106491 v 14.204734 z m 16.309439,-12.75207 h -0.05777 v 15.219945 h -3.177701 v -19.13223 h 3.689432 l 13.750775,15.219945 h 0.06603 V 40.565947 h 3.1777 v 19.13223 h -3.689432 z m 23.506725,8.922321 c 0.09079,3.433568 3.631654,4.31672 6.891894,4.31672 3.359283,0 5.78589,-1.180288 5.78589,-3.243731 0,-1.741545 -1.493932,-2.434862 -3.978316,-2.839294 l -4.861469,-0.726333 c -2.542158,-0.354912 -6.355396,-1.287587 -6.355396,-5.010036 0,-3.516104 3.086905,-5.818903 8.567407,-5.818903 4.316717,0 8.790259,1.394886 9.112158,6.000488 h -3.177701 c -0.239358,-1.477424 -1.22981,-3.532613 -6.3554,-3.532613 -2.302799,0 -4.977019,0.883152 -4.977019,3.136432 0,1.180288 0.866644,2.112963 3.50785,2.517398 l 5.24114,0.80887 c 1.683768,0.297136 6.437937,0.965689 6.437937,4.902737 0,4.853214 -4.886228,6.272861 -9.194693,6.272861 -4.828455,0 -9.830236,-1.526947 -9.830236,-6.776341 z"
       id="path12"
       style="stroke-width:0.0825375" />
  </g>
</svg>
