<?xml version="1.0" encoding="UTF-8" standalone="no"?>
<svg
   version="1.1"
   x="0px"
   y="0px"
   viewBox="0 0 100 100"
   enable-background="new 0 0 100 100"
   xml:space="preserve"
   id="svg50"
   sodipodi:docname="certificate.svg"
   width="100"
   height="100"
   inkscape:version="1.1 (c68e22c387, 2021-05-23)"
   xmlns:inkscape="http://www.inkscape.org/namespaces/inkscape"
   xmlns:sodipodi="http://sodipodi.sourceforge.net/DTD/sodipodi-0.dtd"
   xmlns="http://www.w3.org/2000/svg"
   xmlns:svg="http://www.w3.org/2000/svg"
   xmlns:rdf="http://www.w3.org/1999/02/22-rdf-syntax-ns#"
   xmlns:cc="http://creativecommons.org/ns#"
   xmlns:dc="http://purl.org/dc/elements/1.1/"><metadata
     id="metadata56"><rdf:RDF><cc:Work
         rdf:about=""><dc:format>image/svg+xml</dc:format><dc:type
           rdf:resource="http://purl.org/dc/dcmitype/StillImage" /></cc:Work></rdf:RDF></metadata><defs
     id="defs54" /><sodipodi:namedview
     pagecolor="#ffffff"
     bordercolor="#666666"
     borderopacity="1"
     objecttolerance="10"
     gridtolerance="10"
     guidetolerance="10"
     inkscape:pageopacity="0"
     inkscape:pageshadow="2"
     inkscape:window-width="1264"
     inkscape:window-height="681"
     id="namedview52"
     showgrid="false"
     inkscape:zoom="6.5676078"
     inkscape:cx="17.281787"
     inkscape:cy="49.104637"
     inkscape:window-x="0"
     inkscape:window-y="0"
     inkscape:window-maximized="0"
     inkscape:current-layer="svg50"
     inkscape:pagecheckerboard="0" /><path
     d="m 64.137583,42.45 c 0,1 -0.8,1.8 -1.8,1.8 h -30.5 c -1,0 -1.8,-0.8 -1.8,-1.8 0,-1 0.8,-1.8 1.8,-1.8 h 30.4 c 1,-0.1 1.9,0.7 1.9,1.8 z m -34.7,-11.2 v -8.1 c 0,-1.6 1.3,-3 3,-3 h 28.9 c 1.6,0 3,1.3 3,3 v 8.1 c 0,1.6 -1.3,3 -3,3 h -28.9 c -1.7,0 -3,-1.3 -3,-3 z m 3.7,-0.7 h 27.5 v -6.7 h -27.5 z m 43.3,41.8 -0.1,15.2 c 0,3.1 -2.1,3.3 -2.5,3.3 -0.6,0 -1.3,-0.2 -1.9,-0.7 l -5,-4.2 -4.8,4 c -0.5,0.4 -1.3,1 -2.2,1 -1.1,0 -2.2,-0.8 -2.4,-2.4 v -0.2 -3 h -33.4 c -2.7,0 -4.9,-2.2 -4.9,-4.9 v -66.5 c 0,-2.7 2.2,-4.9 4.9,-4.9 h 46.5 c 2.7,0 4.9,2.2 4.9,4.9 v 37.5 c 1.5,1.1 2.7,2.6 3.6,4.3 3,5.6 1.7,12.5 -2.7,16.6 z m -0.6,-14.8 c -0.8,-1.5 -2,-2.8 -3.4,-3.7 -0.3,-0.2 -0.6,-0.3 -0.8,-0.5 -0.1,0 -0.2,-0.1 -0.3,-0.1 -0.4,-0.2 -0.7,-0.3 -1.1,-0.5 h -0.1 c -2.1,-0.7 -4.5,-0.7 -6.6,0.1 h -0.1 c -0.4,0.2 -0.8,0.3 -1.2,0.6 -3.4,1.8 -5.3,5.3 -5.3,8.9 v 0 0 c 0,1.6 0.4,3.2 1.2,4.8 0.2,0.4 0.4,0.7 0.7,1.1 0.1,0.1 0.1,0.2 0.2,0.3 0.2,0.3 0.4,0.5 0.6,0.7 l 0.2,0.2 c 0.3,0.3 0.6,0.6 0.9,0.8 l 0.1,0.1 c 0.3,0.2 0.5,0.4 0.8,0.6 l 0.1,0.1 c 0.1,0 0.1,0.1 0.2,0.1 0.1,0 0.2,0.1 0.3,0.1 0.1,0.1 0.3,0.1 0.4,0.2 2.3,1.1 4.9,1.3 7.4,0.6 0.1,0 0.3,-0.1 0.4,-0.1 0.1,0 0.1,0 0.2,-0.1 0.1,0 0.2,-0.1 0.3,-0.1 0.3,-0.1 0.6,-0.3 0.9,-0.4 0.3,-0.2 0.6,-0.3 0.8,-0.5 0.3,-0.2 0.5,-0.4 0.8,-0.6 3.6,-3.1 4.8,-8.4 2.4,-12.7 z m -18.3,23.9 v -7.1 h -25.7 c -1,0 -1.8,-0.8 -1.8,-1.8 0,-1 0.8,-1.8 1.8,-1.8 h 24.1 v 0 c -0.1,-0.2 -0.2,-0.3 -0.4,-0.5 -0.1,-0.1 -0.2,-0.2 -0.2,-0.3 -0.2,-0.2 -0.3,-0.5 -0.5,-0.8 l -0.1,-0.1 c -0.2,-0.4 -0.4,-0.8 -0.6,-1.3 v 0 c -0.4,-1.1 -0.7,-2.2 -0.9,-3.3 h -21.4 c -1,0 -1.8,-0.8 -1.8,-1.8 0,-1 0.8,-1.8 1.8,-1.8 h 21.4 c 0.1,-0.7 0.2,-1.4 0.4,-2.1 0.5,-1.5 1.2,-2.9 2.1,-4.1 h -23.9 c -1,0 -1.8,-0.8 -1.8,-1.8 0,-1 0.8,-1.8 1.8,-1.8 h 27.9 c 0.2,-0.1 0.4,-0.2 0.6,-0.4 0.4,-0.2 0.8,-0.4 1.3,-0.6 h 0.1 c 1.6,-0.7 3.4,-1 5.2,-1 1.7,0 3.3,0.3 4.8,0.9 v 0 -36 c 0,-0.7 -0.5,-1.2 -1.2,-1.2 h -46.4 c -0.7,0 -1.2,0.5 -1.2,1.2 v 66.2 c 0,0.7 0.5,1.2 1.2,1.2 h 33.4 z m 15.2,-6.5 c -0.1,0 -0.1,0 -0.2,0.1 0,0 -0.1,0 -0.1,0.1 h -0.1 c -0.2,0.1 -0.4,0.1 -0.6,0.2 -0.1,0 -0.1,0 -0.2,0.1 -0.1,0 -0.2,0.1 -0.3,0.1 h -0.1 -0.1 c -0.1,0 -0.1,0 -0.2,0.1 h -0.1 c -0.1,0 -0.2,0 -0.3,0.1 -0.1,0 -0.3,0.1 -0.5,0.1 -0.1,0 -0.3,0.1 -0.4,0.1 v 0 0 c -0.2,0 -0.4,0.1 -0.7,0.1 -0.1,0 -0.3,0 -0.4,0.1 h -0.1 -0.2 v 0 h -0.2 -0.8 v 0 0 h -0.2 -0.2 v 0 0 c -0.3,0 -0.7,0 -1,-0.1 v 0 0 0 h -0.1 -0.1 c -1.3,-0.1 -2.6,-0.5 -3.7,-1 v 0 0 c -0.1,-0.1 -0.3,-0.1 -0.4,-0.2 v 0 l -0.1,10.9 4.5,-3.8 c 0.3,-0.3 0.8,-0.4 1.2,-0.4 0.4,0 0.9,0.1 1.2,0.4 l 4.5,3.8 z"
     id="path2"
     style="fill:#000000"
     sodipodi:nodetypes="ssssscsssssssssscccccccscccscccssssssccccccccccccscssccssccccscccsccccccccssscsscccsscssscccsssccccsscssssssccccccccscscscsscsscccccccccccsscccccscsscccsccc" /></svg>
