<?xml version="1.0" encoding="UTF-8" standalone="no"?>
<!-- Created with Inkscape (http://www.inkscape.org/) -->

<svg
   width="100mm"
   height="100mm"
   viewBox="0 0 100 100"
   version="1.1"
   id="svg148"
   inkscape:version="1.1.2 (b8e25be833, 2022-02-05)"
   sodipodi:docname="adalanche-logo-black.svg"
   xmlns:inkscape="http://www.inkscape.org/namespaces/inkscape"
   xmlns:sodipodi="http://sodipodi.sourceforge.net/DTD/sodipodi-0.dtd"
   xmlns="http://www.w3.org/2000/svg"
   xmlns:svg="http://www.w3.org/2000/svg">
  <sodipodi:namedview
     id="namedview150"
     pagecolor="#ffffff"
     bordercolor="#666666"
     borderopacity="1.0"
     inkscape:pageshadow="2"
     inkscape:pageopacity="0.0"
     inkscape:pagecheckerboard="0"
     inkscape:document-units="mm"
     showgrid="false"
     inkscape:zoom="0.80087682"
     inkscape:cx="0.62431573"
     inkscape:cy="561.25985"
     inkscape:window-width="1482"
     inkscape:window-height="1095"
     inkscape:window-x="926"
     inkscape:window-y="491"
     inkscape:window-maximized="0"
     inkscape:current-layer="layer1" />
  <defs
     id="defs145" />
  <g
     inkscape:label="Layer 1"
     inkscape:groupmode="layer"
     id="layer1">
    <path
       id="path1363-2"
       style="color:#000000;fill:#000000;stroke:none;stroke-width:0.935878;-inkscape-stroke:none"
       d="m 49.971491,0 c -6.882159,0 -12.543143,5.667132 -12.543143,12.559104 0,3.527332 1.483695,6.73354 3.854195,9.023686 L 14.584028,75.051194 C 13.918516,74.940181 13.236193,74.881802 12.541193,74.881802 5.65906,74.881802 -1e-6,80.548946 -1e-6,87.440918 -1e-6,94.332879 5.65906,100 12.541193,100 c 6.882154,0 12.543149,-5.667121 12.543149,-12.559082 0,-0.832136 -0.08339,-1.646272 -0.240683,-2.434871 L 61.153687,61.107925 c 2.218808,1.975999 5.132782,3.182608 8.307643,3.182608 0.679532,0 1.346967,-0.05589 1.998373,-0.162129 l 7.200919,14.396265 c -2.306096,2.282478 -3.743505,5.443555 -3.743505,8.916249 C 74.917117,94.332879 80.576167,100 87.458311,100 94.340454,100 100,94.332879 100,87.440918 100,80.548946 94.340454,74.881802 87.458311,74.881802 c -0.735058,0 -1.455625,0.06491 -2.157382,0.188756 L 78.143033,60.761397 c 2.374005,-2.290575 3.859502,-5.499259 3.859502,-9.029979 0,-6.891972 -5.659062,-12.559104 -12.541205,-12.559104 -0.668578,0 -1.325532,0.05391 -1.966962,0.156804 L 58.653183,21.589557 c 2.374038,-2.290576 3.859502,-5.499711 3.859502,-9.030453 C 62.512685,5.667132 56.853634,0 49.971491,0 Z m 0,7.492389 c 2.838737,0 5.059973,2.223913 5.059973,5.066715 0,2.842803 -2.221236,5.0672 -5.059973,5.0672 -2.838748,0 -5.061424,-2.224397 -5.061424,-5.0672 0,-2.842802 2.222676,-5.066715 5.061424,-5.066715 z M 47.96345,24.954627 c 0.654493,0.107272 1.325158,0.164066 2.008041,0.164066 0.679191,0 1.346297,-0.05644 1.997406,-0.162614 l 8.83345,17.723102 c -2.387364,2.292017 -3.882211,5.510163 -3.882211,9.052237 0,1.018976 0.124544,2.010843 0.357625,2.961924 l -35.99156,23.687593 z m 21.49788,21.710075 c 2.838748,0 5.05949,2.223914 5.05949,5.066716 0,2.842803 -2.220742,5.066727 -5.05949,5.066727 -2.838748,0 -5.05949,-2.223924 -5.05949,-5.066727 0,-2.842802 2.220742,-5.066716 5.05949,-5.066716 z M 12.541193,82.374191 c 2.838748,0 5.061423,2.223924 5.061423,5.066727 0,2.842791 -2.222675,5.066715 -5.061423,5.066715 -2.838738,0 -5.05949,-2.223924 -5.05949,-5.066715 0,-2.842803 2.220752,-5.066727 5.05949,-5.066727 z m 74.917118,0 c 2.838748,0 5.059973,2.223924 5.059973,5.066727 0,2.842791 -2.221225,5.066715 -5.059973,5.066715 -2.838737,0 -5.05949,-2.223924 -5.05949,-5.066715 0,-2.842803 2.220753,-5.066727 5.05949,-5.066727 z" />
  </g>
</svg>
