<?xml version="1.0" encoding="UTF-8" standalone="no"?>
<svg
   xmlns:dc="http://purl.org/dc/elements/1.1/"
   xmlns:cc="http://creativecommons.org/ns#"
   xmlns:rdf="http://www.w3.org/1999/02/22-rdf-syntax-ns#"
   xmlns:svg="http://www.w3.org/2000/svg"
   xmlns="http://www.w3.org/2000/svg"
   xmlns:sodipodi="http://sodipodi.sourceforge.net/DTD/sodipodi-0.dtd"
   xmlns:inkscape="http://www.inkscape.org/namespaces/inkscape"
   version="1.1"
   x="0px"
   y="0px"
   viewBox="0 0 100 100"
   enable-background="new 0 0 100 100"
   xml:space="preserve"
   id="svg50"
   sodipodi:docname="attacker.svg"
   width="100"
   height="100"
   inkscape:version="1.0.2-2 (e86c870879, 2021-01-15)"><metadata
     id="metadata56"><rdf:RDF><cc:Work
         rdf:about=""><dc:format>image/svg+xml</dc:format><dc:type
           rdf:resource="http://purl.org/dc/dcmitype/StillImage" /><dc:title></dc:title></cc:Work></rdf:RDF></metadata><defs
     id="defs54" /><sodipodi:namedview
     pagecolor="#ffffff"
     bordercolor="#666666"
     borderopacity="1"
     objecttolerance="10"
     gridtolerance="10"
     guidetolerance="10"
     inkscape:pageopacity="0"
     inkscape:pageshadow="2"
     inkscape:window-width="1566"
     inkscape:window-height="1208"
     id="namedview52"
     showgrid="false"
     inkscape:zoom="6.5676078"
     inkscape:cx="39.537629"
     inkscape:cy="49.150322"
     inkscape:window-x="1701"
     inkscape:window-y="176"
     inkscape:window-maximized="0"
     inkscape:current-layer="svg50" /><g
     id="g44"
     transform="matrix(0.8103429,0,0,0.8103429,9.4923376,9.4827388)"><path
       d="m 48.1,52.1 c 17.4,0 37.5,-4 39.3,-7.6 C 89.2,40.9 65,36.1 65,36.1 c -5.8,2.7 -17,2.7 -17,2.7 0,0 -11.2,0 -17,-2.7 0,0 -24.1,4.9 -22.3,8.5 1.9,3.5 21.5,7.5 39.4,7.5 z"
       id="path34" /><path
       d="M 63.1,29.2 C 63.1,29.2 59.7,9.8 57.2,6 54.7,2.2 50.9,10.5 47,10.5 43.1,10.5 42.2,5.2 38.7,5 35.1,4.8 31.6,29.2 31.6,29.2 c 0,0 18.4,4.2 31.5,0 z"
       id="path36" /><path
       d="m 31.5,53.3 c 0,0 -1.6,7.4 8,7.6 0,0 3.7,0 5.6,-3.3 0.6,-1 1.5,-1.6 2.7,-1.6 h 0.4 c 1.1,0 2.1,0.6 2.7,1.6 1.9,3.3 5.6,3.3 5.6,3.3 9.6,-0.2 8,-7.6 8,-7.6 -4.4,1.5 -11.3,1.4 -13.7,1.3 v 0 c -0.6,0 -0.9,0 -0.9,0 0,0 0,0 0,0 H 46.1 C 46.2,54.5 36.9,55 31.5,53.3 Z"
       id="path38" /><path
       d="m 27.7,53.3 -7.4,-1.1 -12.8,11 c 0.3,0 0.8,0 1.2,0 5.7,0 20.8,4.8 20.8,4.8 l -8,6.9 c 6,1.2 24.9,11.3 24.9,11.3 l 1.8,-6.6 C 33.1,68.5 27.7,53.3 27.7,53.3 Z"
       id="path40" /><path
       d="M 92.6,62.9 77.1,52.1 68.8,53.2 c 0.5,2.7 -1.2,7.6 -1.2,7.6 C 43.7,78.9 47.6,95 47.6,95 57.1,76.2 78,73.6 78,73.6 l -9.5,-4.5 c 6.2,-3.9 24.1,-6.2 24.1,-6.2 z"
       id="path42" /></g></svg>
