<?xml version="1.0"?>
<svg viewBox="0 0 1000 1000" xmlns="http://www.w3.org/2000/svg">
<path d="m129.6 775.4h746.8l115.7 121.5v30.35h-984.3v-30.15l121.7-121.7m58.88-702.7h624.1c29.18.11 49.6 22.97 49.6 50.65v474c0 43.48-22.66 64.43-65.67 64.43h-180.7c2.86 12.51 6.64 25.29 14.89 35.41 5.79 7.21 14.42 12.24 23.72 12.98 3.94.32 8.33.05 11.66 2.66 5.46 4.27 5.37 13.76-.31 17.77-2.4 1.7-5.39 2.23-8.25 2.23h-314c-3.95 0-8.06-.04-11.74-1.64-2.16-.94-4-3.32-3.46-5.78 1.14-5.16 5.32-8.84 9.27-11.98 5.15-4.08 11.82-5.23 17.36-8.61 15.35-8.71 24.99-25.69 26.59-43.04h-192c-26.6 0-51.72-24.72-51.72-54.39v-483.1c0-27.49 23.1-51.61 50.66-51.61z" fill="#36c"/>
<path d="m876 841.1c-5.21 1.14-10.71 3.21-14 7.68-1.7 2.3-1.54 5.63.29 7.82 2.51 3 6.09 4.92 9.74 6.09 9.98 3.18 21.13 2.98 30.89-.92 4.08-1.63 9.09-4.56 8.98-9.42-.11-4.77-4.97-7.69-9.02-9.32-8.46-3.42-18.01-3.88-26.88-1.93zm-65.01-.01c-4.8 1.11-9.72 2.9-13.24 6.49-2.16 2.21-2.82 5.93-.92 8.52 2.68 3.66 6.98 5.71 11.24 6.92 9.52 2.69 19.96 2.53 29.23-1.01 4.28-1.64 9.52-4.61 9.53-9.66.01-4.47-4.48-7.34-8.26-8.97-8.62-3.71-18.44-4.21-27.58-2.29m-69.05-.12c-5.48 1.17-11.4 3.2-14.8 7.97-2.12 2.97-.83 6.9 1.76 9.1 5.7 4.86 13.42 6.43 20.68 6.77 7.45.34 15.24-.89 21.8-4.64 3.07-1.76 6.45-4.92 5.65-8.78-.84-4.05-4.76-6.57-8.33-8.11-8.37-3.6-17.88-4.04-26.76-2.31m-69.96.07c-4.63.98-9.38 2.55-12.89 5.85-1.89 1.78-3.39 4.58-2.43 7.26 1.53 4.28 5.82 6.7 9.85 8.13 10.59 3.75 22.75 3.64 33.05-.97 3.38-1.51 7.15-4.06 7.73-8.06.61-4.28-3.19-7.35-6.54-9.08-8.77-4.51-19.2-5.06-28.77-3.13m-71 .01c-5.42 1.21-11.36 3.19-14.63 8.03-1.95 2.89-.7 6.63 1.65 8.81 3.3 3.07 7.66 4.75 12 5.72 9.42 2.11 19.7 1.77 28.55-2.28 3.38-1.55 7.12-4.09 7.72-8.09.63-4.25-3.18-7.35-6.51-9.07-8.77-4.54-19.21-5.05-28.78-3.12m-71-.01c-5.44 1.2-11.36 3.21-14.67 8.03-1.99 2.91-.65 6.61 1.69 8.82 3.61 3.39 8.49 5.02 13.26 5.98 9.29 1.86 19.4 1.33 27.97-2.88 3.31-1.62 7.15-4.4 7.11-8.56-.04-3.92-3.46-6.65-6.59-8.26-8.77-4.51-19.2-5.07-28.77-3.13m-71 0c-4.64.98-9.35 2.59-12.89 5.86-2.13 1.98-3.58 5.21-2.14 8.05 2.17 4.28 6.79 6.54 11.15 7.87 10.43 3.19 22.24 2.92 32.14-1.84 3.32-1.6 7.12-4.39 7.08-8.55-.03-3.92-3.44-6.65-6.57-8.26-8.77-4.52-19.21-5.07-28.77-3.13m-70.06-.16c-4.75.88-9.55 2.42-13.31 5.54-2.39 1.98-4.25 5.42-2.66 8.52 2.19 4.27 6.78 6.56 11.13 7.89 10.2 3.11 21.7 2.96 31.48-1.49 3.55-1.62 7.79-4.47 7.77-8.91-.02-3.92-3.44-6.64-6.58-8.26-8.48-4.37-18.54-5.01-27.83-3.29m-71.94.17c-4.83 1.03-9.89 2.66-13.37 6.34-1.64 1.73-2.92 4.31-1.99 6.76 1.74 4.57 6.43 7 10.76 8.43 10.37 3.41 22.18 3.28 32.18-1.24 3.37-1.52 7.21-4.05 7.74-8.05.57-4.28-3.16-7.39-6.55-9.12-8.78-4.47-19.21-5.07-28.77-3.12m-71-.01c-5.4 1.25-11.37 3.2-14.63 8.04-2.27 3.37-.17 7.56 2.73 9.73 6.13 4.57 14.02 5.98 21.47 6.05 7.07.06 14.49-1.12 20.57-4.94 2.59-1.63 5.28-4.11 5.21-7.49-.08-3.93-3.43-6.63-6.58-8.26-8.76-4.53-19.2-5.04-28.77-3.13m-70.06-.16c-4.97.92-10.04 2.56-13.83 6.03-2.13 1.96-3.6 5.24-2.15 8.04 2.2 4.24 6.78 6.56 11.15 7.88 10.44 3.14 22.25 2.96 32.15-1.83 3.33-1.61 7.12-4.4 7.08-8.57-.03-3.93-3.43-6.64-6.56-8.26-8.48-4.39-18.56-5-27.84-3.29m-71.94.17c-5.62 1.29-11.97 3.37-15 8.73-1.59 2.82-.07 6.12 2.02 8.12 3.25 3.12 7.66 4.73 12.01 5.7 9.66 2.17 20.26 1.78 29.23-2.61 3.33-1.63 7.13-4.41 7.09-8.57-.04-3.93-3.44-6.63-6.58-8.25-8.77-4.53-19.2-5.03-28.77-3.12m742-39.98c-5.94.9-12.21 2.7-16.5 7.18-2.4 2.51-2.58 6.73-.15 9.31 4.33 4.61 10.68 6.53 16.74 7.33 9.03 1.2 18.78.43 26.81-4.2 2.93-1.69 5.93-4.61 5.56-8.28-.38-3.79-3.81-6.32-6.97-7.88-7.83-3.86-16.92-4.56-25.49-3.46m-68.02-.01c-5.74.89-11.74 2.55-16.09 6.61-2.2 2.05-3.39 5.43-1.82 8.22 2.47 4.4 7.51 6.52 12.12 7.8 9.78 2.71 20.69 2.47 30.05-1.66 3.41-1.5 7.18-3.99 7.98-7.9.81-3.93-2.49-7.15-5.6-8.91-8.01-4.53-17.65-5.28-26.64-4.16m-69.98.05c-5.91.98-12.18 2.74-16.41 7.28-2.11 2.26-2.48 6.03-.52 8.52 3.65 4.62 9.54 6.66 15.12 7.67 8.45 1.53 17.49 1.11 25.52-2.19 4.01-1.65 8.82-4.35 9.12-9.08.27-4.23-3.81-7.2-7.32-8.9-7.86-3.8-16.95-4.44-25.51-3.3m-70.97 0c-5.92 1.01-12.2 2.73-16.44 7.27-2.28 2.44-2.41 6.55-.09 9.06 4.39 4.75 10.9 6.73 17.1 7.5 9.1 1.13 18.93.26 26.96-4.56 2.81-1.69 5.57-4.56 5.18-7.99-.44-3.84-3.97-6.39-7.23-7.98-7.84-3.83-16.93-4.44-25.48-3.3m-71.01 0c-5.91 1-12.15 2.76-16.42 7.27-2.16 2.28-2.49 6.04-.54 8.52 3.81 4.87 10.06 6.85 15.9 7.8 8.89 1.45 18.5.87 26.69-3.22 3.49-1.74 7.66-4.77 7.13-9.07-.53-4.36-4.82-7.02-8.59-8.62-7.57-3.2-16.07-3.8-24.17-2.68m-71.01 0c-5.92.98-12.14 2.77-16.41 7.27-2.33 2.46-2.38 6.53-.1 9.06 4.14 4.6 10.36 6.53 16.25 7.38 9.13 1.32 18.99.54 27.19-4.07 3.04-1.71 6.22-4.64 5.8-8.37-.43-3.84-3.98-6.38-7.23-7.97-7.85-3.83-16.94-4.44-25.5-3.3m-71 0c-5.91.98-12.17 2.75-16.4 7.28-2.3 2.47-2.41 6.53-.11 9.05 4.16 4.56 10.34 6.57 16.24 7.39 9.36 1.31 19.53.53 27.82-4.46 2.8-1.68 5.59-4.55 5.18-7.98-.49-4.11-4.38-6.71-7.89-8.3-7.72-3.5-16.51-4.11-24.84-2.98m-70.98 0c-5.92 1.01-12.21 2.72-16.44 7.27-2.11 2.26-2.48 6.04-.53 8.52 3.81 4.87 10.07 6.88 15.9 7.81 9.12 1.46 19.01.85 27.33-3.58 3.27-1.74 6.9-4.71 6.45-8.74-.46-4.1-4.38-6.71-7.88-8.3-7.71-3.5-16.51-4.12-24.83-2.98m-71.03 0c-5.91.99-12.15 2.75-16.4 7.27-2.31 2.45-2.41 6.55-.1 9.06 4 4.34 9.83 6.35 15.46 7.26 8.66 1.39 17.92.84 25.98-2.89 3.55-1.65 7.56-4.26 7.83-8.5.26-3.96-3.38-6.89-6.61-8.57-7.97-4.15-17.36-4.78-26.16-3.63m-70.97 0c-6.12 1.07-12.82 2.8-16.9 7.85-1.98 2.45-1.78 6.19.33 8.52 4.14 4.58 10.39 6.5 16.3 7.35 9.13 1.31 18.99.52 27.18-4.08 3.04-1.71 6.22-4.63 5.79-8.36-.48-4.1-4.38-6.69-7.87-8.29-7.71-3.52-16.51-4.12-24.83-2.99m-71.02 0c-5.91.97-12.17 2.76-16.4 7.29-2.31 2.47-2.4 6.52-.11 9.04 4.16 4.57 10.35 6.54 16.25 7.38 9.13 1.3 18.98.52 27.19-4.07 3.04-1.7 6.24-4.65 5.81-8.36-.47-4.11-4.38-6.7-7.89-8.3-7.72-3.52-16.52-4.11-24.85-2.98m355.9-245.2c-11.16 2.37-18.84 15.02-15.44 25.94 3.16 10.15 14.9 16.8 25.21 13.76 9.84-2.9 16.64-13.78 14.36-23.91-2.35-10.47-13.52-18.04-24.13-15.79zm-274.9-399.3v342.3h553.5v-342.3z" fill="#fff"/>
</svg>
