<?xml version="1.0" encoding="UTF-8" standalone="no"?>
<svg
   xmlns:dc="http://purl.org/dc/elements/1.1/"
   xmlns:cc="http://creativecommons.org/ns#"
   xmlns:rdf="http://www.w3.org/1999/02/22-rdf-syntax-ns#"
   xmlns:svg="http://www.w3.org/2000/svg"
   xmlns="http://www.w3.org/2000/svg"
   xmlns:sodipodi="http://sodipodi.sourceforge.net/DTD/sodipodi-0.dtd"
   xmlns:inkscape="http://www.inkscape.org/namespaces/inkscape"
   version="1.0"
   width="1280.000000pt"
   height="1280.000000pt"
   viewBox="0 0 1280.000000 1280.000000"
   preserveAspectRatio="xMidYMid meet"
   id="svg74"
   sodipodi:docname="1807204.svg"
   inkscape:version="1.0.2-2 (e86c870879, 2021-01-15)">
  <metadata
     id="metadata80">
    <rdf:RDF>
      <cc:Work
         rdf:about="">
        <dc:format>image/svg+xml</dc:format>
        <dc:type
           rdf:resource="http://purl.org/dc/dcmitype/StillImage" />
      </cc:Work>
    </rdf:RDF>
  </metadata>
  <defs
     id="defs78" />
  <sodipodi:namedview
     pagecolor="#ffffff"
     bordercolor="#666666"
     borderopacity="1"
     objecttolerance="10"
     gridtolerance="10"
     guidetolerance="10"
     inkscape:pageopacity="0"
     inkscape:pageshadow="2"
     inkscape:window-width="1495"
     inkscape:window-height="1070"
     id="namedview76"
     showgrid="false"
     inkscape:zoom="0.41763494"
     inkscape:cx="793.02033"
     inkscape:cy="793.72165"
     inkscape:window-x="2917"
     inkscape:window-y="171"
     inkscape:window-maximized="0"
     inkscape:current-layer="svg74" />
  <g
     transform="matrix(0.08581836,0,0,-0.08581836,90.762473,1189.2208)"
     fill="#000000"
     stroke="none"
     id="g72">
    <path
       d="m 5160,12201 c -491,-104 -956,-268 -1395,-491 -93,-48 -192,-100 -220,-117 l -50,-30 3,-64 c 1,-35 22,-248 47,-474 25,-225 48,-442 51,-481 l 7,-71 -134,-100 c -279,-208 -609,-512 -804,-741 -38,-45 -74,-82 -80,-82 -6,0 -246,47 -534,105 -288,57 -528,102 -533,98 -17,-10 -169,-248 -252,-392 C 1120,9107 963,8776 860,8506 809,8370 712,8069 704,8022 l -6,-38 421,-339 c 232,-186 421,-342 421,-347 0,-5 -11,-87 -25,-181 -13,-95 -30,-230 -36,-302 -13,-136 -18,-550 -9,-764 l 5,-124 -450,-301 -450,-301 3,-40 c 4,-59 67,-334 113,-497 82,-290 185,-569 316,-853 70,-151 207,-411 228,-434 11,-11 36,-11 162,3 566,63 879,96 903,96 24,0 43,-20 143,-152 214,-283 484,-575 715,-773 50,-43 92,-84 92,-89 0,-6 -47,-247 -105,-535 -57,-289 -101,-529 -98,-534 10,-16 252,-171 402,-257 198,-114 531,-274 743,-358 181,-73 524,-188 588,-198 l 36,-6 338,421 c 187,232 343,421 348,421 5,0 87,-11 181,-25 95,-13 231,-30 302,-37 146,-14 651,-17 792,-5 l 92,8 300,-450 c 165,-247 304,-452 310,-455 12,-8 315,55 479,100 396,107 815,273 1171,464 199,106 184,92 176,169 -4,36 -26,246 -50,466 -24,220 -47,434 -51,476 l -6,76 113,85 c 323,241 598,496 851,787 l 47,55 513,-102 c 282,-56 524,-103 537,-105 21,-2 34,11 80,78 181,261 422,721 558,1065 83,210 188,520 199,588 l 6,38 -399,321 c -219,176 -409,329 -422,340 l -23,19 26,179 c 14,99 31,239 37,310 13,136 18,552 9,764 l -5,124 450,301 450,301 -3,40 c -4,59 -67,334 -113,497 -83,294 -186,571 -321,863 -72,156 -201,400 -223,424 -11,11 -94,4 -532,-43 -285,-31 -528,-56 -540,-56 -16,0 -48,35 -124,136 -212,283 -511,607 -737,799 -45,38 -82,75 -82,80 0,6 47,247 105,535 57,288 101,528 98,533 -9,15 -244,166 -383,247 -241,140 -594,307 -864,410 -137,51 -437,148 -484,156 l -38,6 -339,-421 c -190,-237 -345,-421 -354,-421 -9,0 -56,7 -106,15 -294,49 -626,70 -935,60 -129,-4 -255,-8 -279,-9 l -44,-1 -301,450 c -166,248 -308,451 -316,452 -8,1 -76,-11 -150,-26 z M 6735,9355 c 1150,-135 2111,-909 2482,-2000 105,-309 153,-610 153,-955 0,-479 -95,-888 -305,-1315 -133,-272 -312,-527 -520,-744 -481,-501 -1114,-814 -1815,-896 -162,-19 -498,-19 -660,0 -1030,120 -1904,742 -2351,1670 -196,408 -289,821 -289,1285 0,484 100,911 311,1333 450,896 1314,1500 2319,1622 151,18 517,18 675,0 z"
       id="path70" />
  </g>
</svg>
